<svg xmlns="http://www.w3.org/2000/svg" width="241" height="241" viewBox="0 0 241 241" fill="none">
  <path fill-rule="evenodd" clip-rule="evenodd" d="M10.0417 30.1249C10.0417 24.5791 14.5375 20.0833 20.0833 20.0833H80.3333C93.6494 20.0833 106.42 25.373 115.836 34.7889C117.526 36.4787 119.083 38.2766 120.5 40.1662C121.917 38.2766 123.474 36.4787 125.164 34.7889C134.58 25.373 147.351 20.0833 160.667 20.0833H220.917C226.463 20.0833 230.958 24.5791 230.958 30.1249V180.75C230.958 186.296 226.463 190.792 220.917 190.792H150.625C145.299 190.792 140.19 192.908 136.424 196.674C132.658 200.44 130.542 205.548 130.542 210.875C130.542 216.421 126.046 220.917 120.5 220.917C114.954 220.917 110.458 216.421 110.458 210.875C110.458 205.548 108.342 200.44 104.576 196.674C100.81 192.908 95.7014 190.792 90.375 190.792H20.0833C14.5375 190.792 10.0417 186.296 10.0417 180.75V30.1249ZM110.458 176.089C104.404 172.594 97.4868 170.708 90.375 170.708H30.125V40.1666H80.3333C88.323 40.1666 95.9854 43.3405 101.635 48.99C107.284 54.6395 110.458 62.3019 110.458 70.2916V176.089ZM130.542 176.089C136.596 172.594 143.513 170.708 150.625 170.708H210.875V40.1666H160.667C152.677 40.1666 145.015 43.3405 139.365 48.99C133.716 54.6395 130.542 62.3019 130.542 70.2916V176.089Z" fill="white" fill-opacity="0.35"/>
</svg>