<svg xmlns="http://www.w3.org/2000/svg" width="224" height="109" viewBox="0 0 224 109" fill="none">
  <path fill-rule="evenodd" clip-rule="evenodd" d="M65.3333 28C65.3333 17.6907 73.6907 9.33337 84 9.33337H140C150.309 9.33337 158.667 17.6907 158.667 28H168C175.426 28 182.548 30.95 187.799 36.2011C193.05 41.4521 196 48.574 196 56V186.667C196 194.093 193.05 201.215 187.799 206.466C182.548 211.717 175.426 214.667 168 214.667H56C48.5739 214.667 41.452 211.717 36.201 206.466C30.95 201.215 28 194.093 28 186.667V56C28 48.574 30.95 41.4521 36.201 36.2011C41.452 30.95 48.5739 28 56 28H65.3333ZM65.3333 46.6667H56C53.5246 46.6667 51.1507 47.65 49.4003 49.4004C47.65 51.1507 46.6667 53.5247 46.6667 56V186.667C46.6667 189.142 47.65 191.516 49.4003 193.266C51.1507 195.017 53.5246 196 56 196H168C170.475 196 172.849 195.017 174.6 193.266C176.35 191.516 177.333 189.142 177.333 186.667V56C177.333 53.5247 176.35 51.1507 174.6 49.4004C172.849 47.65 170.475 46.6667 168 46.6667H158.667C158.667 56.976 150.309 65.3334 140 65.3334H84C73.6907 65.3334 65.3333 56.976 65.3333 46.6667ZM140 46.6667H84V28H140V46.6667Z" fill="white" fill-opacity="0.35"/>
</svg>