<svg xmlns="http://www.w3.org/2000/svg" width="105" height="105" viewBox="0 0 105 105" fill="none">
  <path d="M38.0936 23.1564C39.8021 24.865 39.8021 27.635 38.0936 29.3436L14.9372 52.5L38.0936 75.6564C39.8021 77.3649 39.8021 80.135 38.0936 81.8436C36.385 83.5521 33.615 83.5521 31.9064 81.8436L5.65641 55.5936C3.94786 53.885 3.94786 51.1149 5.65641 49.4064L31.9064 23.1564C33.615 21.4479 36.385 21.4479 38.0936 23.1564Z" fill="white" fill-opacity="0.35"/>
  <path d="M66.9064 23.1564C68.615 21.4479 71.385 21.4479 73.0936 23.1564L99.3436 49.4064C101.052 51.1149 101.052 53.885 99.3436 55.5936L73.0936 81.8436C71.385 83.5521 68.615 83.5521 66.9064 81.8436C65.1979 80.135 65.1979 77.3649 66.9064 75.6564L90.0628 52.5L66.9064 29.3436C65.1979 27.635 65.1979 24.865 66.9064 23.1564Z" fill="white" fill-opacity="0.35"/>
</svg>