<svg xmlns="http://www.w3.org/2000/svg" width="122" height="122" viewBox="0 0 122 122" fill="none">
  <path fill-rule="evenodd" clip-rule="evenodd" d="M45.75 30.5C45.75 22.0777 52.5776 15.25 61 15.25C69.4223 15.25 76.25 22.0777 76.25 30.5C76.25 38.9223 69.4223 45.75 61 45.75C52.5776 45.75 45.75 38.9223 45.75 30.5ZM61 25.4167C58.1925 25.4167 55.9166 27.6926 55.9166 30.5C55.9166 33.3074 58.1925 35.5833 61 35.5833C63.8074 35.5833 66.0833 33.3074 66.0833 30.5C66.0833 27.6926 63.8074 25.4167 61 25.4167Z" fill="white" fill-opacity="0.35"/>
  <path d="M20.3333 61C20.3333 58.1926 22.6092 55.9167 25.4166 55.9167H96.5833C99.3908 55.9167 101.667 58.1926 101.667 61C101.667 63.8075 99.3908 66.0833 96.5833 66.0833H25.4166C22.6092 66.0833 20.3333 63.8075 20.3333 61Z" fill="white" fill-opacity="0.35"/>
  <path fill-rule="evenodd" clip-rule="evenodd" d="M45.75 91.5C45.75 83.0777 52.5776 76.25 61 76.25C69.4223 76.25 76.25 83.0777 76.25 91.5C76.25 99.9223 69.4223 106.75 61 106.75C52.5776 106.75 45.75 99.9223 45.75 91.5ZM61 86.4167C58.1925 86.4167 55.9166 88.6926 55.9166 91.5C55.9166 94.3074 58.1925 96.5833 61 96.5833C63.8074 96.5833 66.0833 94.3074 66.0833 91.5C66.0833 88.6926 63.8074 86.4167 61 86.4167Z" fill="white" fill-opacity="0.35"/>
</svg>