<svg xmlns="http://www.w3.org/2000/svg" width="134" height="241" viewBox="0 0 134 241" fill="none">
  <path fill-rule="evenodd" clip-rule="evenodd" d="M-96.9583 30.1249C-96.9583 24.5791 -92.4624 20.0833 -86.9166 20.0833H-26.6666C-13.3505 20.0833 -0.579819 25.373 8.83607 34.7889C10.5259 36.4787 12.0828 38.2766 13.5001 40.1662C14.9174 38.2766 16.4743 36.4787 18.1641 34.7889C27.58 25.373 40.3507 20.0833 53.6667 20.0833H113.917C119.463 20.0833 123.958 24.5791 123.958 30.1249V180.75C123.958 186.296 119.463 190.792 113.917 190.792H43.6251C38.2986 190.792 33.1904 192.908 29.424 196.674C25.6577 200.44 23.5417 205.548 23.5417 210.875C23.5417 216.421 19.046 220.917 13.5001 220.917C7.95422 220.917 3.45842 216.421 3.45842 210.875C3.45842 205.548 1.34251 200.44 -2.42385 196.674C-6.1902 192.908 -11.2985 190.792 -16.6249 190.792H-86.9166C-92.4624 190.792 -96.9583 186.296 -96.9583 180.75V30.1249ZM3.45842 176.089C-2.59576 172.594 -9.51311 170.708 -16.6249 170.708H-76.8749V40.1666H-26.6666C-18.6769 40.1666 -11.0145 43.3405 -5.36499 48.99C0.284546 54.6395 3.45842 62.3019 3.45842 70.2916V176.089ZM23.5417 176.089C29.5959 172.594 36.5133 170.708 43.6251 170.708H103.875V40.1666H53.6667C45.6771 40.1666 38.0147 43.3405 32.3652 48.99C26.7156 54.6395 23.5417 62.3019 23.5417 70.2916V176.089Z" fill="white" fill-opacity="0.3"/>
</svg>