<svg xmlns="http://www.w3.org/2000/svg" width="122" height="122" viewBox="0 0 122 122" fill="none">
  <path fill-rule="evenodd" clip-rule="evenodd" d="M53.3859 7.13082C55.7015 5.79643 58.3273 5.09399 61 5.09399C63.6728 5.09399 66.2987 5.79649 68.6144 7.13099C68.6179 7.13303 68.6215 7.13507 68.625 7.13711L104.208 27.4704C106.089 28.5563 107.711 30.0283 108.971 31.7831C109.278 32.0899 109.55 32.4414 109.778 32.8349C109.974 33.1738 110.126 33.5259 110.237 33.8848C111.283 35.9866 111.831 38.3056 111.833 40.6617V81.3388C111.831 84.0131 111.125 86.6396 109.786 88.9549C108.448 91.2702 106.524 93.1929 104.208 94.53L104.189 94.5413L68.625 114.863C68.6219 114.865 68.6189 114.867 68.6159 114.869C67.0033 115.798 65.2404 116.421 63.4159 116.714C62.6973 117.103 61.8744 117.324 61 117.324C60.1256 117.324 59.3027 117.103 58.5841 116.714C56.7597 116.421 54.9969 115.798 53.3844 114.869C53.3813 114.867 53.3781 114.865 53.375 114.863L17.8113 94.5413L17.7917 94.53C15.4757 93.1929 13.552 91.2702 12.2137 88.9549C10.8754 86.6396 10.1694 84.0131 10.1667 81.3388V40.6617C10.1691 38.3056 10.7173 35.9866 11.7629 33.8848C11.8737 33.5259 12.0263 33.1738 12.2223 32.8349C12.4499 32.4414 12.7222 32.0899 13.029 31.783C14.2889 30.0282 15.9109 28.5563 17.7917 27.4704L17.8113 27.4591L53.3859 7.13082ZM20.3333 43.3994V81.3306C20.3346 82.2212 20.5699 83.0959 21.0157 83.8671C21.4602 84.6362 22.0986 85.2753 22.867 85.7208C22.8697 85.7224 22.8723 85.7239 22.875 85.7254L55.9167 104.606V63.9831L20.3333 43.3994ZM66.0833 63.9831V104.606L99.125 85.7254C99.1277 85.7239 99.1304 85.7223 99.1331 85.7208C99.9015 85.2753 100.54 84.6362 100.984 83.8671C101.43 83.0953 101.666 82.2198 101.667 81.3284V43.3994L66.0833 63.9831ZM96.3851 34.7094L63.5416 15.9417C62.7689 15.4956 61.8923 15.2607 61 15.2607C60.1077 15.2607 59.2311 15.4955 58.4583 15.9417L58.4387 15.953L25.6149 34.7094L61 55.1785L96.3851 34.7094Z" fill="white" fill-opacity="0.35"/>
</svg>