<svg xmlns="http://www.w3.org/2000/svg" width="160" height="160" viewBox="0 0 160 160" fill="none">
  <path fill-rule="evenodd" clip-rule="evenodd" d="M73.6193 20.2862C82.3751 11.5303 94.2507 6.61133 106.633 6.61133C119.016 6.61133 130.891 11.5303 139.647 20.2862C148.403 29.0421 153.322 40.9176 153.322 53.3002C153.322 65.6829 148.403 77.5584 139.647 86.3143L121.958 104.056C121.606 104.515 121.196 104.926 120.738 105.28L94.721 131.374C93.4702 132.628 91.7715 133.334 90 133.334H36.0947L18.0474 151.381C15.4439 153.984 11.2228 153.984 8.61928 151.381C6.01578 148.777 6.01578 144.556 8.61928 141.953L26.6667 123.905V70.0002C26.6667 68.2321 27.369 66.5364 28.6193 65.2862L73.6193 20.2862ZM49.4281 120H87.2328L100.527 106.667H62.7614L49.4281 120ZM76.0947 93.3336L111.381 58.0476C113.984 55.4441 113.984 51.223 111.381 48.6195C108.777 46.016 104.556 46.016 101.953 48.6195L40 110.572V72.7617L83.0474 29.7143C89.3027 23.4589 97.7869 19.9447 106.633 19.9447C115.48 19.9447 123.964 23.4589 130.219 29.7143C136.475 35.9697 139.989 44.4538 139.989 53.3002C139.989 62.1467 136.475 70.6308 130.219 76.8862L113.821 93.3336H76.0947Z" fill="white" fill-opacity="0.35"/>
</svg>